<svg width="30" height="30" viewBox="0 0 30 30" fill="none" xmlns="http://www.w3.org/2000/svg">
<path d="M15 0.562714C7.025 0.562714 0.562721 7.02543 0.562721 15C0.562721 22.9746 7.02544 29.4373 15 29.4373C22.9746 29.4373 29.4373 22.9746 29.4373 15C29.4373 7.02543 22.9746 0.562714 15 0.562714ZM21.6 21.1877C21.325 21.6002 20.9125 21.6002 20.5 21.6002C20.0875 21.6002 19.8125 21.6002 19.4 21.3252L15.1375 17.0627L10.875 21.1877C10.6 21.6002 10.1875 21.6002 9.775 21.6002C9.3625 21.6002 9.0875 21.6002 8.675 21.1877C8.125 20.6377 8.125 19.8127 8.675 19.2627L12.9375 15.0002L8.675 10.7377C8.125 10.1877 8.125 9.36271 8.675 8.81271C9.225 8.26271 10.05 8.26271 10.6 8.81271L15 13.0752L19.2625 8.81271C19.5375 8.53771 19.95 8.40021 20.225 8.40021C20.5 8.40021 20.9125 8.53771 21.1875 8.81271C21.7375 9.36271 21.7375 10.1877 21.1875 10.7377L16.925 15.0002L21.4623 19.2627C22.0123 19.8127 22.0125 20.7752 21.6 21.1877Z" fill="#FF473B"/>
</svg>
